<?xml version="1.0" encoding="UTF-8"?>
<!DOCTYPE svg  PUBLIC '-//W3C//DTD SVG 1.1//EN'  'http://www.w3.org/Graphics/SVG/1.1/DTD/svg11.dtd'>
<svg enable-background="new 0 0 21.1 15.95" version="1.1" viewBox="0 0 21.1 15.95" xml:space="preserve" xmlns="http://www.w3.org/2000/svg">
<radialGradient id="i" cx="5.1763" cy="-8.3877" r="12.978" gradientTransform="matrix(.2618 .9651 1.0555 -.2863 16.949 -4.5965)" gradientUnits="userSpaceOnUse">
	<stop stop-color="#BAFFED" offset="0"/>
	<stop stop-color="#B2F7E5" offset=".1373"/>
	<stop stop-color="#9EE2D0" offset=".349"/>
	<stop stop-color="#7BBFAD" offset=".6078"/>
	<stop stop-color="#4C8F7E" offset=".902"/>
	<stop stop-color="#3B7D6C" offset="1"/>
</radialGradient>
<path d="m19.15 11.1l-0.4 0.4c-0.5 0.467-1.083 0.934-1.75 1.4l-0.2 0.2c-0.1 0.034-0.184 0.067-0.25 0.101 1.601-1.967 2.117-4.434 1.55-7.4-0.433-2.066-1.416-3.65-2.949-4.75 0.3 0.067 0.583 0.167 0.85 0.3l1.9 0.95c0.133 0.067 0.25 0.133 0.35 0.2l0.025 0.025c0.784 0.926 1.242 1.917 1.374 2.974 0.267 2.1 0.166 3.884-0.301 5.35-0.066 0.067-0.132 0.15-0.199 0.25zm-19.15-2.15c0.1-2.167 0.567-3.783 1.4-4.85 0.133-0.2 0.283-0.4 0.45-0.6 0.733 0.1 1.3 0.983 1.7 2.65s0.4 3.216 0 4.65c-0.367 1.4-0.933 2.134-1.7 2.2-1.133-1.2-1.75-2.55-1.85-4.05z" clip-rule="evenodd" fill="url(#i)" fill-rule="evenodd"/>
<radialGradient id="j" cx="4.8384" cy="-7.7725" r="12.381" gradientTransform="matrix(.2211 .9753 1.1045 -.2504 16.164 -3.6644)" gradientUnits="userSpaceOnUse">
	<stop stop-color="#FFD1E4" offset="0"/>
	<stop stop-color="#F9C9DD" offset=".1451"/>
	<stop stop-color="#E7B4C9" offset=".3686"/>
	<stop stop-color="#CA91A9" offset=".6431"/>
	<stop stop-color="#A2617C" offset=".9529"/>
	<stop stop-color="#9C5975" offset="1"/>
</radialGradient>
<path d="m17.05 4.8c0.267-0.566 0.017-1.066-0.75-1.5-0.333-0.2-0.883-0.267-1.649-0.2-0.867 0.066-1.267 0.35-1.2 0.85 0.1 1.1 0.85 1.65 2.25 1.65 0.665 0 1.115-0.267 1.349-0.8zm1.225-2.275c1.663 1.06 2.588 2.352 2.774 3.875 0.2 1.567-0.434 3.133-1.899 4.7 0.066-0.1 0.133-0.183 0.199-0.25 0.467-1.466 0.567-3.25 0.301-5.35-0.132-1.057-0.59-2.048-1.375-2.975zm-10.9-2.325c1.503-0.259 3.095-0.242 4.775 0.05-0.271-0.038-0.537-0.071-0.801-0.1-0.233 0.167-0.3 0.35-0.199 0.55 0.133 0.233 0.517 0.45 1.149 0.65 0.767 0.233 1.45 0.3 2.05 0.2 0.534-0.066 0.801-0.233 0.801-0.5 1.533 1.1 2.517 2.684 2.949 4.75 0.567 2.967 0.051 5.434-1.55 7.4 0.066-0.033 0.15-0.066 0.25-0.101-0.399 0.233-0.783 0.467-1.149 0.7-0.334-0.1-0.801-0.083-1.4 0.05-0.5 0.134-0.9 0.334-1.2 0.601-0.267 0.233-0.399 0.467-0.399 0.7 0.75-0.25 1.441-0.525 2.074-0.825-1.283 0.657-2.559 1.116-3.824 1.375 2.3-2.2 3.033-5.55 2.199-10.05-0.399-2.5-1.483-4.367-3.25-5.6-0.962 0-1.787 0.05-2.475 0.15zm6.925 8.55c0.033 0.434 0.334 0.684 0.9 0.75 0.5 0.033 1-0.083 1.5-0.35 0.566-0.267 0.899-0.617 1-1.051 0.133-0.533-0.233-0.883-1.101-1.05-0.5-0.1-1.017 0.05-1.55 0.45s-0.782 0.817-0.749 1.251zm2.45 2.25c-0.4-0.066-0.95 0.05-1.65 0.35-0.767 0.367-1.166 0.733-1.199 1.101-0.034 0.366 0.199 0.533 0.699 0.5 0.4-0.066 0.867-0.25 1.4-0.55 0.533-0.301 0.884-0.567 1.05-0.801 0.2-0.3 0.1-0.5-0.3-0.6zm-8.85 4.95c-1.7-0.134-3.3-0.75-4.8-1.85 0.767 0.534 1.533 0.95 2.3 1.25 0.233-0.166 0.167-0.466-0.2-0.899-0.267-0.3-0.667-0.517-1.2-0.65-0.533-0.1-0.833-0.05-0.9 0.15v0.149c-1.967-1.366-3-3.083-3.1-5.149 0.1 1.5 0.717 2.85 1.85 4.05 0.767-0.066 1.333-0.8 1.7-2.2 0.4-1.434 0.4-2.983 0-4.65-0.4-1.668-0.967-2.551-1.7-2.651-0.167 0.2-0.317 0.4-0.45 0.6 0.167-0.267 0.367-0.533 0.6-0.8 1.3-1.566 2.9-2.566 4.8-3l-1.65 0.6c1.733 0.833 2.917 2.25 3.55 4.25 0.633 1.967 0.683 4.267 0.15 6.9-0.4 1.867-1.133 3.084-2.2 3.65 0.433 0.1 0.85 0.184 1.25 0.25zm-1-11.3c-0.433-0.2-0.933-0.133-1.5 0.2s-0.817 0.683-0.75 1.05c0.1 0.533 0.467 0.817 1.1 0.85 0.533 0 1-0.133 1.4-0.4 0.367-0.233 0.533-0.5 0.5-0.8 0-0.367-0.25-0.667-0.75-0.9zm-1.45-2.8c-0.233-0.1-0.617-0.033-1.15 0.2-0.567 0.233-0.883 0.517-0.95 0.85-0.067 0.434-0.033 0.7 0.1 0.8 0.133 0.167 0.45 0.2 0.95 0.1 0.633-0.066 1.117-0.35 1.45-0.85 0.333-0.533 0.2-0.9-0.4-1.1zm1.6 8.4c0.4-0.134 0.65-0.35 0.75-0.65 0.067-0.333-0.1-0.683-0.5-1.05-0.367-0.3-0.867-0.383-1.5-0.25-0.633 0.167-0.966 0.434-1 0.8-0.033 0.534 0.233 0.9 0.8 1.1 0.5 0.166 0.983 0.184 1.45 0.05zm-1.55 1.35c-0.633-0.066-1.017 0.067-1.15 0.4-0.167 0.467 0.017 0.884 0.55 1.25 0.434 0.3 0.883 0.45 1.35 0.45 0.433 0 0.717-0.134 0.85-0.4 0.167-0.267 0.1-0.616-0.2-1.05-0.267-0.4-0.733-0.616-1.4-0.65z" clip-rule="evenodd" fill="url(#j)" fill-rule="evenodd"/>
<radialGradient id="k" cx="3.9502" cy="-8.0913" r="12.639" gradientTransform="matrix(.1719 .9851 1.1571 -.202 17.334 -3.0248)" gradientUnits="userSpaceOnUse">
	<stop stop-color="#FFFAD1" offset="0"/>
	<stop stop-color="#F9F3C9" offset=".1451"/>
	<stop stop-color="#E7E1B4" offset=".3686"/>
	<stop stop-color="#CAC491" offset=".6431"/>
	<stop stop-color="#A29B61" offset=".9529"/>
	<stop stop-color="#9C9459" offset="1"/>
</radialGradient>
<path d="m17.05 4.8c-0.233 0.534-0.684 0.8-1.35 0.8-1.4 0-2.15-0.55-2.25-1.65-0.066-0.5 0.333-0.784 1.2-0.85 0.767-0.067 1.316 0 1.649 0.2 0.767 0.433 1.017 0.933 0.751 1.5zm-10.15-0.15c0.5 0.233 0.75 0.533 0.75 0.9 0.033 0.3-0.133 0.567-0.5 0.8-0.4 0.267-0.867 0.4-1.4 0.4-0.633-0.033-1-0.317-1.1-0.85-0.067-0.367 0.183-0.717 0.75-1.05s1.067-0.4 1.5-0.2z" clip-rule="evenodd" fill="url(#k)" fill-rule="evenodd"/>
<radialGradient id="l" cx="3.9487" cy="-8.0918" r="12.651" gradientTransform="matrix(.1718 .9851 1.157 -.2017 17.334 -3.0225)" gradientUnits="userSpaceOnUse">
	<stop stop-color="#FFFAD1" offset="0"/>
	<stop stop-color="#F9F3C9" offset=".1451"/>
	<stop stop-color="#E7E1B4" offset=".3686"/>
	<stop stop-color="#CAC491" offset=".6431"/>
	<stop stop-color="#A29B61" offset=".9529"/>
	<stop stop-color="#9C9459" offset="1"/>
</radialGradient>
<path d="m12.15 0.25l0.1 0.025c0.232 0.045 0.466 0.095 0.7 0.15 0.051 5e-3 0.102 0.013 0.15 0.025 0.7 0.133 1.383 0.317 2.05 0.55v0.05c0 0.267-0.267 0.434-0.801 0.5-0.6 0.1-1.283 0.034-2.05-0.2-0.633-0.2-1.017-0.417-1.149-0.65-0.101-0.2-0.034-0.383 0.199-0.55 0.264 0.029 0.531 0.062 0.801 0.1zm4.6 10.75c0.4 0.1 0.5 0.3 0.3 0.6-0.166 0.233-0.517 0.5-1.05 0.801-0.533 0.3-1 0.483-1.4 0.55-0.5 0.033-0.733-0.134-0.699-0.5 0.033-0.367 0.433-0.733 1.199-1.101 0.7-0.3 1.25-0.416 1.65-0.35zm-2.45-2.25c-0.033-0.434 0.217-0.85 0.75-1.25s1.05-0.55 1.55-0.45c0.867 0.167 1.233 0.517 1.101 1.05-0.101 0.434-0.434 0.784-1 1.051-0.5 0.267-1 0.383-1.5 0.35-0.567-0.067-0.868-0.317-0.901-0.751zm-8.85-6.9c0.6 0.2 0.733 0.566 0.4 1.1-0.333 0.5-0.817 0.783-1.45 0.85-0.5 0.1-0.817 0.067-0.95-0.1-0.133-0.1-0.167-0.367-0.1-0.8 0.067-0.333 0.383-0.617 0.95-0.85 0.533-0.233 0.917-0.3 1.15-0.2zm9.275 12.475c-0.633 0.3-1.324 0.575-2.074 0.825 0-0.233 0.133-0.467 0.399-0.7 0.3-0.267 0.7-0.467 1.2-0.601 0.6-0.133 1.066-0.149 1.4-0.05l-0.3 0.201-0.625 0.325z" clip-rule="evenodd" fill="url(#l)" fill-rule="evenodd"/>
<radialGradient id="m" cx="5.1763" cy="-8.3877" r="12.978" gradientTransform="matrix(.2618 .9651 1.0555 -.2863 16.949 -4.5965)" gradientUnits="userSpaceOnUse">
	<stop stop-color="#E6FFF8" offset="0"/>
	<stop stop-color="#BAFFED" offset=".2275"/>
	<stop stop-color="#B2F7E5" offset=".3333"/>
	<stop stop-color="#9EE2D0" offset=".498"/>
	<stop stop-color="#7BBFAD" offset=".698"/>
	<stop stop-color="#4C8F7E" offset=".9255"/>
	<stop stop-color="#3B7D6C" offset="1"/>
</radialGradient>
<path d="m7.375 0.2c0.688-0.1 1.513-0.15 2.475-0.15 1.766 1.233 2.85 3.1 3.25 5.6 0.834 4.5 0.101 7.85-2.199 10.05-0.167 0.033-0.334 0.066-0.5 0.1l-0.801 0.1c-0.267 0.033-0.517 0.05-0.75 0.05h-0.95c-0.4-0.066-0.816-0.15-1.25-0.25 1.067-0.566 1.8-1.783 2.2-3.65 0.533-2.633 0.483-4.933-0.15-6.9-0.633-2-1.817-3.417-3.55-4.25l1.65-0.6 0.575-0.1z" clip-rule="evenodd" fill="url(#m)" fill-rule="evenodd"/>
<radialGradient id="n" cx="3.292" cy="-8.6831" r="12.859" gradientTransform="matrix(.0729 .9973 .9973 -.0729 17.32 -1.2658)" gradientUnits="userSpaceOnUse">
	<stop stop-color="#FFFAD1" offset="0"/>
	<stop stop-color="#F9F3C9" offset=".1451"/>
	<stop stop-color="#E7E1B4" offset=".3686"/>
	<stop stop-color="#CAC491" offset=".6431"/>
	<stop stop-color="#A29B61" offset=".9529"/>
	<stop stop-color="#9C9459" offset="1"/>
</radialGradient>
<path d="m7.05 10.25c-0.467 0.134-0.95 0.116-1.45-0.05-0.567-0.2-0.833-0.566-0.8-1.1 0.034-0.366 0.367-0.633 1-0.8 0.633-0.133 1.133-0.05 1.5 0.25 0.4 0.367 0.567 0.717 0.5 1.05-0.1 0.3-0.35 0.516-0.75 0.65z" clip-rule="evenodd" fill="url(#n)" fill-rule="evenodd"/>
<radialGradient id="o" cx="2.3203" cy="-9.0342" r="13.026" gradientTransform="matrix(-.0144 .9999 .9999 .0144 18.067 .26)" gradientUnits="userSpaceOnUse">
	<stop stop-color="#FFFAD1" offset="0"/>
	<stop stop-color="#F9F3C9" offset=".1451"/>
	<stop stop-color="#E7E1B4" offset=".3686"/>
	<stop stop-color="#CAC491" offset=".6431"/>
	<stop stop-color="#A29B61" offset=".9529"/>
	<stop stop-color="#9C9459" offset="1"/>
</radialGradient>
<path d="m5.5 11.6c0.667 0.034 1.133 0.25 1.4 0.65 0.3 0.434 0.367 0.783 0.2 1.05-0.133 0.267-0.417 0.4-0.85 0.4-0.467 0-0.917-0.15-1.35-0.45-0.533-0.366-0.717-0.783-0.55-1.25 0.133-0.333 0.517-0.467 1.15-0.4z" clip-rule="evenodd" fill="url(#o)" fill-rule="evenodd"/>
<radialGradient id="p" cx="2.6494" cy="-8.8999" r="12.55" gradientTransform="matrix(3.9841e-5 1 1 3.9841e-5 17.8 .00082522)" gradientUnits="userSpaceOnUse">
	<stop stop-color="#FFFAD1" offset="0"/>
	<stop stop-color="#F9F3C9" offset=".1451"/>
	<stop stop-color="#E7E1B4" offset=".3686"/>
	<stop stop-color="#CAC491" offset=".6431"/>
	<stop stop-color="#A29B61" offset=".9529"/>
	<stop stop-color="#9C9459" offset="1"/>
</radialGradient>
<path d="m3.1 14.1v-0.15c0.066-0.2 0.367-0.25 0.9-0.15 0.533 0.134 0.933 0.351 1.2 0.65 0.367 0.434 0.433 0.733 0.2 0.899-0.767-0.299-1.533-0.715-2.3-1.249z" clip-rule="evenodd" fill="url(#p)" fill-rule="evenodd"/>
</svg>
