<?xml version="1.0" encoding="UTF-8"?>
<!DOCTYPE svg  PUBLIC '-//W3C//DTD SVG 1.1//EN'  'http://www.w3.org/Graphics/SVG/1.1/DTD/svg11.dtd'>
<svg enable-background="new 0 0 24 18.75" version="1.1" viewBox="0 0 24 18.75" xml:space="preserve" xmlns="http://www.w3.org/2000/svg">
<g clip-rule="evenodd" fill-rule="evenodd">
		<radialGradient id="i" cx="9.5498" cy="-5.6846" r="13.016" gradientTransform="matrix(.533 .8461 .8461 -.533 9.6199 -6.0605)" gradientUnits="userSpaceOnUse">
		<stop stop-color="#FBE6FF" offset="0"/>
		<stop stop-color="#F1D4F7" offset=".4627"/>
		<stop stop-color="#E8C5F0" offset=".7922"/>
		<stop stop-color="#99819E" offset="1"/>
	</radialGradient>
	<path d="m14.3 0.05l-0.05-0.05 1.75 0.2c0.1 0.033 0.184 0.066 0.25 0.1 0.533 0.233 0.783 0.467 0.75 0.7-0.1 0.333-0.066 0.533 0.1 0.6 0.134 0.033 0.5 0.117 1.101 0.25 0.899 0.3 1.416 0.467 1.55 0.5 0.467 0.3 0.65 0.8 0.55 1.5l-0.1 1.7c0.033 0.333 0.283 0.583 0.75 0.75 0.5 0.167 0.767 0.534 0.8 1.1 0.033 0.533-0.167 1.133-0.6 1.8-0.334 0.667-0.483 1.166-0.45 1.5 0 0.267 0.2 0.517 0.6 0.75l0.2 0.1-0.8 1.05c-0.834-0.433-1.25-0.816-1.25-1.149 0.267-0.601 0.483-1.134 0.649-1.6 0.367-0.934 0.45-1.533 0.25-1.8-0.1-0.133-0.466-0.4-1.1-0.8-0.6-0.333-0.934-0.65-1-0.95l0.1-1.65c0.101-0.733-0.033-1.2-0.399-1.4-0.8-0.3-1.4-0.517-1.8-0.65-0.733-0.333-1.067-0.717-1-1.15 0.132-0.634-0.151-1.101-0.851-1.401z" fill="url(#i)"/>
		<radialGradient id="j" cx="8.625" cy="-5.6519" r="12.044" gradientTransform="matrix(.4803 .8771 1.0522 -.5762 10.904 -5.9711)" gradientUnits="userSpaceOnUse">
		<stop stop-color="#F6CCFF" offset="0"/>
		<stop stop-color="#EC96FF" offset=".251"/>
		<stop stop-color="#DC8BED" offset=".3804"/>
		<stop stop-color="#B16EBF" offset=".6392"/>
		<stop stop-color="#6D4076" offset=".9961"/>
		<stop stop-color="#6C4075" offset="1"/>
	</radialGradient>
	<path d="m7.15 18.45l0.7-0.101-1.5-0.6c-0.6-0.267-1.15-0.6-1.65-1l-0.65-0.5 2.15 0.1c0.833 0 1.716-0.133 2.65-0.399l-1.5-0.45c-0.667-0.134-1.35-0.467-2.05-1l-0.8-0.75 0.95-0.4c0.6-0.267 1.65-1.116 3.15-2.55l-4.8 1.05 0.6-1.45c0.133-0.334 0.517-1.05 1.15-2.15l0.9-1.5-1.15 0.75c-0.733 0.467-1.6 1.15-2.6 2.05v-0.75l0.55-3.65-0.95 1.15c-0.6 0.8-1.117 1.85-1.55 3.15l-0.1-2.1c0.1-0.267 0.217-0.533 0.35-0.8 1.1-2.3 2.667-3.966 4.7-5 2.433-1.267 5.3-1.767 8.6-1.5 0.7 0.3 0.983 0.767 0.851 1.4-0.067 0.433 0.267 0.816 1 1.15 0.399 0.133 1 0.35 1.8 0.65 0.366 0.2 0.5 0.667 0.399 1.4l-0.1 1.65c0.066 0.3 0.4 0.617 1 0.95 0.634 0.4 1 0.667 1.1 0.8 0.2 0.267 0.117 0.867-0.25 1.8-0.166 0.466-0.383 1-0.649 1.6 0 0.333 0.416 0.717 1.25 1.149l0.8-1.05-0.2-0.1c-0.399-0.233-0.6-0.483-0.6-0.75-0.033-0.334 0.116-0.833 0.45-1.5 0.433-0.667 0.633-1.267 0.6-1.8-0.033-0.566-0.3-0.933-0.8-1.1-0.467-0.167-0.717-0.417-0.75-0.75l0.1-1.7c0.101-0.7-0.083-1.2-0.55-1.5-0.134-0.033-0.65-0.2-1.55-0.5-0.601-0.132-0.968-0.216-1.101-0.249-0.166-0.067-0.2-0.267-0.1-0.6 0.033-0.233-0.217-0.467-0.75-0.7 3.767 0.534 6.1 1.917 7 4.15 0.934 2.466 0.033 5.25-2.7 8.35-2.2 2.5-4.55 4.217-7.05 5.15 0.167-0.066 0.333-0.15 0.5-0.25 0.066-0.167-0.267-0.517-1-1.05-0.4-0.301-0.616-0.617-0.65-0.95-0.033-0.4 0.15-0.967 0.551-1.7 0.966-1.667 0.883-2.783-0.25-3.35-0.5-0.2-0.784-0.483-0.851-0.851 0-0.133 0.05-0.783 0.15-1.95 0.033-0.8-0.2-1.4-0.7-1.8-0.1-0.066-0.667-0.333-1.7-0.8-0.533-0.167-0.833-0.3-0.9-0.4-0.033-0.032-0.167-0.249-0.4-0.649-0.567-1.133-1.817-1.767-3.75-1.9l-1 0.85c1 0.1 1.733 0.317 2.2 0.65 0.4 0.267 0.566 0.534 0.5 0.8-0.1 0.5 0.283 0.95 1.15 1.35 0.433 0.233 1.1 0.566 2 1 0.367 0.2 0.517 0.733 0.45 1.6 0 0.434-0.05 1.05-0.15 1.851 0.067 0.399 0.417 0.8 1.05 1.199 0.767 0.5 1.2 0.851 1.3 1.051 0.2 0.333 0.116 1-0.25 2l-0.75 1.849c0 0.333 0.5 0.816 1.5 1.45l0.1 0.3c-0.1 0.033-0.216 0.066-0.35 0.1-1.7 0.466-3.4 0.5-5.1 0.1zm8.95-14.75c-0.433-0.267-1.066-0.317-1.899-0.15-0.934 0.2-1.417 0.55-1.45 1.05-0.134 1.367 0.533 1.883 2 1.55 0.833-0.233 1.417-0.6 1.75-1.1 0.299-0.5 0.166-0.95-0.401-1.35zm-3.15-3.7c-1.2 0-2.35 0.117-3.45 0.35-0.633 0.067-1.067 0.317-1.3 0.75-0.267 0.467-0.083 0.717 0.55 0.75 0.867 0.033 1.883-0.2 3.05-0.7 1.1-0.5 1.483-0.883 1.15-1.15zm2.85 10.6c-1 0.834-1.149 1.467-0.45 1.9 0.7 0.366 1.483 0.134 2.351-0.7 0.866-0.8 1.017-1.434 0.45-1.9-0.568-0.433-1.351-0.2-2.351 0.7zm3.05 3.5c-0.233 0-0.683 0.301-1.35 0.9-0.6 0.6-0.884 1-0.85 1.2 0.833-0.566 1.649-1.217 2.449-1.95 1e-3 -0.1-0.082-0.15-0.249-0.15z" fill="url(#j)"/>
		<radialGradient id="k" cx="6.7651" cy="-8.1519" r="14.282" gradientTransform="matrix(.4254 .905 .9208 -.4184 14.928 -6.7832)" gradientUnits="userSpaceOnUse">
		<stop stop-color="#FBE6FF" offset="0"/>
		<stop stop-color="#F1D4F7" offset=".4627"/>
		<stop stop-color="#E8C5F0" offset=".7922"/>
		<stop stop-color="#99819E" offset="1"/>
	</radialGradient>
	<path d="m16.1 3.7c0.567 0.4 0.7 0.85 0.4 1.35-0.333 0.5-0.917 0.867-1.75 1.1-1.467 0.333-2.134-0.183-2-1.55 0.033-0.5 0.517-0.85 1.45-1.05 0.833-0.167 1.467-0.117 1.9 0.15z" fill="url(#k)"/>
		<radialGradient id="l" cx="7.3794" cy="-7.3853" r="18.026" gradientTransform="matrix(.4195 .9077 .9077 -.4195 13.407 -6.1975)" gradientUnits="userSpaceOnUse">
		<stop stop-color="#FBE6FF" offset="0"/>
		<stop stop-color="#F1D4F7" offset=".4627"/>
		<stop stop-color="#E8C5F0" offset=".7922"/>
		<stop stop-color="#99819E" offset="1"/>
	</radialGradient>
	<path d="m12.95 0c0.333 0.267-0.05 0.65-1.15 1.15-1.167 0.5-2.183 0.733-3.05 0.7-0.633-0.033-0.817-0.283-0.55-0.75 0.233-0.434 0.667-0.684 1.3-0.75 1.1-0.233 2.25-0.35 3.45-0.35z" fill="url(#l)"/>
		<radialGradient id="m" cx="8.0967" cy="-8.1172" r="15.132" gradientTransform="matrix(.5386 .8426 .8426 -.5386 13.678 -8.7437)" gradientUnits="userSpaceOnUse">
		<stop stop-color="#FBE6FF" offset="0"/>
		<stop stop-color="#F1D4F7" offset=".4627"/>
		<stop stop-color="#E8C5F0" offset=".7922"/>
		<stop stop-color="#99819E" offset="1"/>
	</radialGradient>
	<path d="m12.6 18.25l-0.1-0.3c-1-0.634-1.5-1.117-1.5-1.45l0.75-1.85c0.366-1 0.45-1.667 0.25-2-0.1-0.2-0.533-0.551-1.3-1.051-0.633-0.399-0.983-0.799-1.05-1.199 0.1-0.8 0.15-1.417 0.15-1.85 0.067-0.867-0.083-1.4-0.45-1.6-0.9-0.434-1.567-0.767-2-1-0.867-0.4-1.25-0.85-1.15-1.35 0.066-0.267-0.1-0.533-0.5-0.8-0.467-0.333-1.2-0.55-2.2-0.65l1-0.85c1.933 0.133 3.183 0.767 3.75 1.9 0.233 0.4 0.367 0.617 0.4 0.65 0.067 0.1 0.367 0.233 0.9 0.4 1.034 0.467 1.6 0.733 1.7 0.8 0.5 0.4 0.733 1 0.7 1.8-0.1 1.167-0.15 1.816-0.15 1.95 0.067 0.367 0.351 0.65 0.851 0.851 1.133 0.566 1.216 1.683 0.25 3.35-0.4 0.733-0.584 1.3-0.551 1.7 0.034 0.333 0.25 0.649 0.65 0.95 0.733 0.533 1.066 0.883 1 1.05-0.167 0.1-0.333 0.184-0.5 0.25-0.3 0.099-0.6 0.199-0.9 0.299z" fill="url(#m)"/>
		<radialGradient id="n" cx="4.0933" cy="-7.7383" r="18.242" gradientTransform="matrix(.4009 .9161 .8668 -.4235 13.667 -6.6768)" gradientUnits="userSpaceOnUse">
		<stop stop-color="#FBE6FF" offset="0"/>
		<stop stop-color="#F1D4F7" offset=".4627"/>
		<stop stop-color="#E8C5F0" offset=".7922"/>
		<stop stop-color="#99819E" offset="1"/>
	</radialGradient>
	<path d="m15.8 10.6c1-0.899 1.783-1.133 2.351-0.7 0.566 0.466 0.416 1.1-0.45 1.9-0.867 0.834-1.65 1.066-2.351 0.7-0.7-0.434-0.55-1.066 0.45-1.9z" fill="url(#n)"/>
		<radialGradient id="o" cx="7.751" cy="-7.4746" r="13.556" gradientTransform="matrix(.3781 .9258 .9258 -.3781 13.84 -5.6517)" gradientUnits="userSpaceOnUse">
		<stop stop-color="#C17BD1" offset="0"/>
		<stop stop-color="#B170BF" offset=".1569"/>
		<stop stop-color="#865491" offset=".4667"/>
		<stop stop-color="#422848" offset=".902"/>
		<stop stop-color="#321D36" offset="1"/>
	</radialGradient>
	<path d="m0.65 7.35l0.1 2.1c0.433-1.3 0.95-2.35 1.55-3.15l0.95-1.15-0.55 3.65v0.75c1-0.9 1.867-1.583 2.6-2.05l1.15-0.75-0.9 1.5c-0.633 1.1-1.017 1.816-1.15 2.15l-0.6 1.45 4.8-1.05c-1.5 1.434-2.55 2.283-3.15 2.55l-0.95 0.4 0.8 0.75c0.7 0.533 1.383 0.866 2.05 1l1.5 0.45c-0.933 0.267-1.817 0.4-2.65 0.4l-2.15-0.1 0.65 0.5c0.5 0.4 1.05 0.733 1.65 1l1.5 0.6-0.7 0.101c-0.167-0.034-0.35-0.085-0.55-0.151-1.533-0.434-2.817-1.149-3.85-2.149l-2.05-2.751c-0.667-1.334-0.867-2.75-0.6-4.25l0.3-1.15c0.033-0.267 0.117-0.517 0.25-0.75v0.1z" fill="url(#o)"/>
		<radialGradient id="p" cx="6.9619" cy="-8.5156" r="13.714" gradientTransform="matrix(.4193 .9079 .9079 -.4193 15.462 -7.141)" gradientUnits="userSpaceOnUse">
		<stop stop-color="#FBE6FF" offset="0"/>
		<stop stop-color="#F1D4F7" offset=".4627"/>
		<stop stop-color="#E8C5F0" offset=".7922"/>
		<stop stop-color="#99819E" offset="1"/>
	</radialGradient>
	<path d="m18.85 14.1c0.167 0 0.25 0.051 0.25 0.15-0.8 0.733-1.616 1.384-2.449 1.95-0.035-0.2 0.249-0.6 0.849-1.2 0.667-0.6 1.116-0.9 1.35-0.9z" fill="url(#p)"/>
</g>
</svg>
